<?xml version="1.0" encoding="UTF-8"?>
<svg version="1.1" xmlns="http://www.w3.org/2000/svg" width="1080" height="410">
<path d="M0 0 C7.26 0 14.52 0 22 0 C26.03102385 8.58527018 29.49419555 17.31188913 32.8125 26.1875 C33.3193185 27.53463429 33.82647798 28.88164034 34.33398438 30.22851562 C35.55991109 33.4842131 36.78125966 36.74160447 38 40 C41.95907914 31.59833972 45.40826752 23.03750573 48.75 14.375 C49.72090503 11.86076709 50.69539906 9.34802218 51.671875 6.8359375 C52.0956543 5.73813965 52.51943359 4.6403418 52.95605469 3.50927734 C54 1 54 1 55 0 C56.54955559 -0.09899523 58.10353673 -0.13079524 59.65625 -0.1328125 C60.59597656 -0.13410156 61.53570313 -0.13539063 62.50390625 -0.13671875 C63.49261719 -0.13285156 64.48132813 -0.12898437 65.5 -0.125 C66.98306641 -0.13080078 66.98306641 -0.13080078 68.49609375 -0.13671875 C69.90568359 -0.13478516 69.90568359 -0.13478516 71.34375 -0.1328125 C72.21193359 -0.13168457 73.08011719 -0.13055664 73.97460938 -0.12939453 C76 0 76 0 77 1 C77.09948193 3.11137901 77.12799638 5.22612286 77.12939453 7.33984375 C77.13202301 8.33251755 77.13202301 8.33251755 77.13470459 9.34524536 C77.13912217 11.5426899 77.13618547 13.74005458 77.1328125 15.9375 C77.13348557 17.45825211 77.13445561 18.97900412 77.13571167 20.49975586 C77.13718851 23.69092836 77.13503452 26.88207292 77.13037109 30.07324219 C77.1246738 34.1726453 77.12795288 38.27198296 77.13394356 42.37138367 C77.13754954 45.51282244 77.13641042 48.65424558 77.13381577 51.79568481 C77.1331466 53.30762744 77.13397457 54.81957146 77.13629532 56.33151245 C77.13882245 58.44109887 77.13498044 60.55057787 77.12939453 62.66015625 C77.12859894 63.86293213 77.12780334 65.06570801 77.12698364 66.30493164 C77 69 77 69 76 70 C71.05 70 66.1 70 61 70 C60.67 55.15 60.34 40.3 60 25 C58.78441406 28.16464844 57.56882812 31.32929688 56.31640625 34.58984375 C55.14216023 37.64144162 53.96699948 40.69268571 52.79174805 43.74389648 C51.97308049 45.87080617 51.15537005 47.9980845 50.33862305 50.12573242 C49.16704464 53.17723593 47.99207296 56.22741343 46.81640625 59.27734375 C46.44971329 60.23462875 46.08302032 61.19191376 45.70521545 62.1782074 C45.3649382 63.05904495 45.02466095 63.93988251 44.67407227 64.84741211 C44.3742897 65.62684677 44.07450714 66.40628143 43.76564026 67.20933533 C43 69 43 69 42 70 C39.66702567 70.04092937 37.33294775 70.04241723 35 70 C32.18479633 64.5421722 29.74087441 59.0764986 27.546875 53.34375 C27.14009521 52.29429199 27.14009521 52.29429199 26.72509766 51.22363281 C25.7291212 48.65074019 24.7399397 46.07522134 23.75 43.5 C21.5225 37.725 19.295 31.95 17 26 C16.67 40.52 16.34 55.04 16 70 C10.72 70 5.44 70 0 70 C0 46.9 0 23.8 0 0 Z " fill="#FFFFFF" transform="translate(697,176)"/>
<path d="M0 0 C7.26 0 14.52 0 22 0 C23.47627767 3.60666787 24.95167252 7.21368057 26.42504883 10.8215332 C27.16590688 12.63465458 27.90812836 14.44721866 28.65039062 16.25976562 C31.86622948 24.13749167 34.97759529 32.04617239 38 40 C39.47676354 36.39353495 40.95167336 32.78631737 42.42504883 29.1784668 C43.16590688 27.36534542 43.90812836 25.55278134 44.65039062 23.74023438 C47.86655314 15.86171545 50.96900847 7.95150429 54 0 C61.26 0 68.52 0 76 0 C76 23.1 76 46.2 76 70 C70.72 70 65.44 70 60 70 C59.67 55.81 59.34 41.62 59 27 C57.85660156 29.93648437 56.71320313 32.87296875 55.53515625 35.8984375 C54.42999781 38.73478981 53.32451205 41.57101434 52.21899414 44.40722656 C51.44944546 46.38202785 50.68023842 48.3569623 49.91137695 50.33203125 C48.80769698 53.16701578 47.70279886 56.00152288 46.59765625 58.8359375 C46.25283707 59.72243988 45.90801788 60.60894226 45.55274963 61.52230835 C45.07236488 62.753358 45.07236488 62.753358 44.58227539 64.00927734 C44.30025772 64.73319672 44.01824005 65.45711609 43.72767639 66.20297241 C43 68 43 68 42 70 C39.36 70 36.72 70 34 70 C25.585 48.715 25.585 48.715 17 27 C16.67 41.19 16.34 55.38 16 70 C10.72 70 5.44 70 0 70 C0 46.9 0 23.8 0 0 Z " fill="#FFFFFF" transform="translate(285,176)"/>
<path d="M0 0 C7.26 0 14.52 0 22 0 C23.07121094 2.80371094 24.14242188 5.60742188 25.24609375 8.49609375 C26.28133953 11.20019806 27.31750411 13.90394857 28.35375977 16.60766602 C29.0754264 18.49206293 29.79613192 20.3768282 30.51586914 22.26196289 C31.5484387 24.96597334 32.58441726 27.66865563 33.62109375 30.37109375 C33.94403915 31.21900986 34.26698456 32.06692596 34.59971619 32.9405365 C35.8249887 36.75258026 35.8249887 36.75258026 38 40 C38.44915771 38.85934082 38.89831543 37.71868164 39.36108398 36.54345703 C41.02438925 32.32011241 42.68889146 28.0972404 44.35375977 23.87451172 C45.07479093 22.0452139 45.79549541 20.21578728 46.51586914 18.38623047 C47.55008903 15.75975326 48.58547464 13.13373825 49.62109375 10.5078125 C49.94403915 9.68693146 50.26698456 8.86605042 50.59971619 8.02029419 C50.89995193 7.25965668 51.20018768 6.49901917 51.50952148 5.71533203 C51.77377426 5.04470734 52.03802704 4.37408264 52.31028748 3.68313599 C53 2 53 2 54 0 C61.26 0 68.52 0 76 0 C76 23.1 76 46.2 76 70 C70.72 70 65.44 70 60 70 C59.67 55.48 59.34 40.96 59 26 C54.15319363 38.6095987 54.15319363 38.6095987 49.30712891 51.21948242 C48.69696686 52.80648815 48.08677974 54.39348424 47.4765625 55.98046875 C47.16291748 56.79696899 46.84927246 57.61346924 46.52612305 58.45471191 C45.04206235 62.3133876 43.54945736 66.16695374 42 70 C39.36 70 36.72 70 34 70 C32.30992461 65.87605077 30.62345647 61.75063465 28.9375 57.625 C28.47150391 56.48804688 28.00550781 55.35109375 27.52539062 54.1796875 C23.56969082 44.49225941 19.79432546 34.75683689 16 25 C15.67 39.85 15.34 54.7 15 70 C10.05 70 5.1 70 0 70 C0 46.9 0 23.8 0 0 Z " fill="#FFFFFF" transform="translate(472,176)"/>
<path d="M0 0 C5.713125 -0.061875 11.42625 -0.12375 17.3125 -0.1875 C19.09180908 -0.21481201 20.87111816 -0.24212402 22.7043457 -0.27026367 C35.68922953 -0.38821222 46.28829952 0.53440499 56 10 C62.90757172 17.55751829 65.97044681 25.7745948 66 36 C65.36204034 46.48472829 61.88932875 54.5913485 54.25 61.875 C46.48055547 68.21008554 37.51241556 70.16375222 27.734375 70.09765625 C27.03070801 70.09664917 26.32704102 70.09564209 25.60205078 70.09460449 C22.98468384 70.08939005 20.36734021 70.07542881 17.75 70.0625 C11.8925 70.041875 6.035 70.02125 0 70 C0 46.9 0 23.8 0 0 Z M16 14 C16 27.86 16 41.72 16 56 C32.80743041 57.34164079 32.80743041 57.34164079 42 52 C48.41908393 45.30182546 49.52171861 40.70810546 49.37890625 31.55859375 C48.66783393 24.88037847 46.08244246 20.69995303 40.9375 16.5 C32.53927797 12.2115462 26.70560721 14 16 14 Z " fill="#FFFFFF" transform="translate(945,176)"/>
<path d="M0 0 C8.90350413 6.29916503 14.48394248 14.22644036 16.71875 24.94921875 C18.21580831 35.86526895 16.18601695 46.02092877 9.66015625 55 C4.03686356 61.77441378 -3.25594894 66.38242685 -12 68 C-24.78717621 68.81082926 -34.84701952 68.00633582 -45.18359375 59.6953125 C-53.74766385 51.70218041 -56.48029366 43.1021368 -57.05859375 31.59765625 C-56.88535619 20.96087034 -53.27946845 12.83520197 -46.21875 5.03125 C-34.73102348 -6.07982975 -13.83385187 -8.14660166 0 0 Z M-33.8125 14.25 C-34.534375 15.1575 -35.25625 16.065 -36 17 C-36.763125 17.94875 -37.52625 18.8975 -38.3125 19.875 C-41.67940563 26.12782475 -41.0779208 34.85415076 -39.33984375 41.5390625 C-37.14611555 46.4583318 -33.44112843 50.02207397 -29 53 C-23.5029273 54.83235757 -17.03352755 55.1772627 -11.57421875 53.05859375 C-5.28112847 49.27799902 -1.58292909 44.54968744 0.515625 37.51953125 C2.06100325 29.48107183 0.22955538 22.83416244 -4.26953125 16.1015625 C-7.85328294 11.74928619 -11.8292282 10.00769241 -17.375 9.0625 C-23.69322613 8.62043981 -28.88863702 10.31090961 -33.8125 14.25 Z " fill="#FFFFFF" transform="translate(126,179)"/>
<path d="M0 0 C7.54580539 4.70387868 12.52721324 13.78051029 14.55078125 22.28515625 C16.30818331 32.84512081 14.92422338 42.58712703 9.2421875 51.6875 C3.38262098 59.85058161 -3.5929789 63.79922213 -13.0078125 66.9375 C-25.6692692 67.76977248 -36.89280725 67.11121826 -47.15625 58.76953125 C-52.50555469 53.47665383 -56.67225937 47.41659753 -58.0078125 39.9375 C-58.13929688 39.20144531 -58.27078125 38.46539062 -58.40625 37.70703125 C-59.92414753 27.09861404 -57.89600434 16.92556003 -52.0078125 7.9375 C-47.88066304 2.69300032 -43.19287063 -0.62315932 -37.0078125 -3.0625 C-36.11578125 -3.41957031 -35.22375 -3.77664062 -34.3046875 -4.14453125 C-22.7512568 -7.3614225 -10.44147873 -5.52545178 0 0 Z M-35.05859375 12.74609375 C-41.36191437 19.64973062 -42.47556719 25.20790754 -42.3203125 34.484375 C-41.76067706 40.6683466 -39.64167725 44.73140592 -35.0078125 48.8125 C-28.68911842 53.28824164 -23.71006887 53.74613584 -16.0078125 52.9375 C-10.64202869 51.23284666 -7.15591127 47.48475377 -4.0078125 42.9375 C-0.54118748 36.10170528 -0.26436433 30.21673605 -2.2578125 22.8125 C-4.29677625 16.58233299 -7.08517154 12.83458856 -13.02734375 9.73046875 C-20.55840991 6.71507145 -28.84489914 7.26620689 -35.05859375 12.74609375 Z " fill="#FFFFFF" transform="translate(921.0078125,180.0625)"/>
<path d="M0 0 C7.96675566 5.6848869 13.90602962 13.8030702 15.609375 23.55859375 C16.62847889 35.59911752 15.47931363 46.85233611 7.609375 56.55859375 C6.949375 56.55859375 6.289375 56.55859375 5.609375 56.55859375 C5.279375 57.54859375 4.949375 58.53859375 4.609375 59.55859375 C2.5703125 61.09375 2.5703125 61.09375 -0.015625 62.62109375 C-0.85351562 63.12769531 -1.69140625 63.63429688 -2.5546875 64.15625 C-12.25906306 68.95497015 -25.00387983 69.34649987 -35.328125 66.12109375 C-43.74420089 62.50320747 -50.66643926 55.9007698 -54.390625 47.55859375 C-54.68582031 46.91792969 -54.98101563 46.27726562 -55.28515625 45.6171875 C-58.88383005 36.69444835 -58.68078662 25.96170195 -55.48828125 16.93359375 C-51.64272334 8.612956 -46.54228719 2.77353171 -38.390625 -1.44140625 C-37.73835937 -1.78042969 -37.08609375 -2.11945313 -36.4140625 -2.46875 C-25.64756396 -6.97903993 -9.90302559 -5.9709419 0 0 Z M-36.328125 15.30859375 C-40.70829632 22.2106819 -42.35612563 28.3518384 -41.390625 36.55859375 C-40.01078639 42.28792364 -37.6230427 47.22236768 -32.7421875 50.75 C-27.17061506 54.01334957 -21.72718669 54.47172273 -15.390625 53.55859375 C-8.54022967 51.41998953 -5.15862611 47.65259569 -1.640625 41.49609375 C0.95448859 34.91511509 0.60401991 27.20872214 -1.953125 20.68359375 C-4.93636947 14.89567931 -8.96595443 11.47829638 -15.015625 9.18359375 C-22.69011957 7.76239105 -30.87748888 9.24496816 -36.328125 15.30859375 Z " fill="#FFFFFF" transform="translate(840.390625,179.44140625)"/>
<path d="M0 0 C5.28 0 10.56 0 16 0 C16 8.91 16 17.82 16 27 C26.56 27 37.12 27 48 27 C48 18.09 48 9.18 48 0 C53.28 0 58.56 0 64 0 C64 23.1 64 46.2 64 70 C58.72 70 53.44 70 48 70 C48 60.43 48 50.86 48 41 C37.44 41 26.88 41 16 41 C16 50.57 16 60.14 16 70 C10.72 70 5.44 70 0 70 C0 46.9 0 23.8 0 0 Z " fill="#FFFFFF" transform="translate(621,176)"/>
<path d="M0 0 C6.6 0 13.2 0 20 0 C24.97424903 11.8460469 29.67785164 23.78879535 34.34936523 35.75683594 C35.32995696 38.26810342 36.31453223 40.77775434 37.30249023 43.28613281 C38.73662826 46.9273721 40.15976716 50.57285523 41.58203125 54.21875 C42.02569534 55.34164429 42.46935944 56.46453857 42.9264679 57.62145996 C43.33076523 58.66354614 43.73506256 59.70563232 44.15161133 60.77929688 C44.50959305 61.69352417 44.86757477 62.60775146 45.23640442 63.54968262 C46 66 46 66 46 70 C40.39 70 34.78 70 29 70 C27.68 66.37 26.36 62.74 25 59 C10.15 58.505 10.15 58.505 -5 58 C-5.99 61.3 -6.98 64.6 -8 68 C-8.33 68.66 -8.66 69.32 -9 70 C-14.61 70 -20.22 70 -26 70 C-24.66499906 63.19287685 -22.64814914 57.01965878 -20.078125 50.5859375 C-19.50442169 49.12687485 -19.50442169 49.12687485 -18.91912842 47.63833618 C-17.70229855 44.54806349 -16.4762939 41.46152758 -15.25 38.375 C-14.44210614 36.32706038 -13.63480945 34.27888506 -12.828125 32.23046875 C-8.58701596 21.47302499 -4.30406355 10.73239071 0 0 Z M9 16 C7.49223384 20.10135565 5.99512424 24.20652067 4.5 28.3125 C4.07074219 29.47974609 3.64148438 30.64699219 3.19921875 31.84960938 C2.79316406 32.96787109 2.38710937 34.08613281 1.96875 35.23828125 C1.59169922 36.26993408 1.21464844 37.30158691 0.82617188 38.36450195 C-0.14956274 41.01678062 -0.14956274 41.01678062 0 44 C6.6 44 13.2 44 20 44 C18.45989987 36.79566928 18.45989987 36.79566928 16.2734375 29.96484375 C15.9640625 29.13662109 15.6546875 28.30839844 15.3359375 27.45507812 C14.86027344 26.20887695 14.86027344 26.20887695 14.375 24.9375 C13.88773438 23.6390918 13.88773438 23.6390918 13.390625 22.31445312 C12.59908318 20.20755504 11.80216278 18.10287198 11 16 C10.34 16 9.68 16 9 16 Z " fill="#FFFFFF" transform="translate(233,176)"/>
<path d="M0 0 C6.6 0 13.2 0 20 0 C23.30549541 7.86444751 26.5039864 15.75594208 29.57421875 23.71484375 C30.1890789 25.30299644 30.1890789 25.30299644 30.81636047 26.92323303 C32.10818559 30.26076505 33.39792158 33.59909933 34.6875 36.9375 C35.9882345 40.30072114 37.28940036 43.66377499 38.59077454 47.02674866 C39.3959199 49.1078156 40.20061764 51.1890558 41.00480652 53.27049255 C41.36891129 54.21239944 41.73301605 55.15430634 42.1081543 56.12475586 C42.42616501 56.94793808 42.74417572 57.7711203 43.07182312 58.61924744 C43.71873697 60.27856674 44.4040968 61.92318902 45.11824036 63.55470276 C46 66 46 66 46 70 C40.72 70 35.44 70 30 70 C28.99088542 67.72135417 27.98177083 65.44270833 26.97265625 63.1640625 C26.3430097 61.76316215 25.68687358 60.37374716 25 59 C10.15 58.505 10.15 58.505 -5 58 C-5.99 61.3 -6.98 64.6 -8 68 C-8.33 68.66 -8.66 69.32 -9 70 C-14.61 70 -20.22 70 -26 70 C-24.87501638 63.25009831 -24.87501638 63.25009831 -23.56054688 59.92016602 C-23.26905762 59.17328522 -22.97756836 58.42640442 -22.67724609 57.65689087 C-22.36094238 56.86390594 -22.04463867 56.07092102 -21.71875 55.25390625 C-21.38891113 54.41338715 -21.05907227 53.57286804 -20.71923828 52.70687866 C-19.65160649 49.98990466 -18.57588466 47.2762152 -17.5 44.5625 C-16.76832046 42.70472882 -16.0372017 40.84673668 -15.30664062 38.98852539 C-13.86746997 35.3300712 -12.42537719 31.67279333 -10.98046875 28.01660156 C-8.8900248 22.72532138 -6.81538487 17.42800821 -4.74609375 12.12841797 C-3.16689463 8.08450485 -1.58304183 4.04241038 0 0 Z M10 16 C7.34932751 21.70914075 4.98424844 27.49302606 2.75 33.375 C2.47978027 34.07689453 2.20956055 34.77878906 1.93115234 35.50195312 C0.81495996 38.47368076 0 40.79840513 0 44 C6.93 44 13.86 44 21 44 C17.7 34.76 14.4 25.52 11 16 C10.67 16 10.34 16 10 16 Z " fill="#FFFFFF" transform="translate(393,176)"/>
<path d="M0 0 C0.79841309 0.00563965 1.59682617 0.0112793 2.41943359 0.01708984 C12.58872985 0.22597716 19.50350065 2.6262757 27.25 9.3125 C25.84023295 12.35102705 24.16129772 14.9064595 22.125 17.5625 C21.58617187 18.26890625 21.04734375 18.9753125 20.4921875 19.703125 C20.08226562 20.23421875 19.67234375 20.7653125 19.25 21.3125 C17.9815625 20.68021484 17.9815625 20.68021484 16.6875 20.03515625 C5.95616501 14.67415766 5.95616501 14.67415766 -5.6875 15.1875 C-8.58674598 16.00927365 -8.58674598 16.00927365 -9.75 17.3125 C-9.79063832 18.97867115 -9.792721 20.64638095 -9.75 22.3125 C-4.14039221 25.32766419 1.08420183 27.24158385 7.25 28.75 C22.13605058 32.6798204 22.13605058 32.6798204 26.6875 39.5625 C29.4637731 45.28856326 29.91689572 50.90755454 28.125 57 C25.53164366 63.67527595 21.68105184 67.50774337 15.3125 70.55078125 C5.11814811 74.31574075 -8.14226353 73.43691481 -18.14453125 69.6015625 C-22.08539411 67.65181026 -25.45971336 65.2156941 -28.75 62.3125 C-28.11610765 58.81405614 -26.69822306 56.47163124 -24.6875 53.5625 C-24.13964844 52.76328125 -23.59179688 51.9640625 -23.02734375 51.140625 C-22.60582031 50.53734375 -22.18429688 49.9340625 -21.75 49.3125 C-19.26690184 50.50609225 -17.15370855 51.72731144 -14.875 53.3125 C-9.68875935 56.63169401 -5.24643493 57.57884752 0.875 57.5 C2.53402344 57.49033203 2.53402344 57.49033203 4.2265625 57.48046875 C6.74557022 57.34052388 8.85014013 57.04416459 11.25 56.3125 C12.10650653 53.51204954 12.10650653 53.51204954 12.25 50.3125 C8.94361347 45.36247624 3.55294686 44.7799968 -1.875 43.4375 C-20.11707693 38.54859229 -20.11707693 38.54859229 -25.375 31.1875 C-27.69500272 26.18117835 -27.56214944 20.66983667 -26.75 15.3125 C-24.54904047 9.39133455 -20.31361396 5.20065372 -14.75 2.3125 C-9.75865367 0.23580846 -5.32069703 -0.03903257 0 0 Z " fill="#FFFFFF" transform="translate(176.75,174.6875)"/>
<path d="M0 0 C16.5 0 33 0 50 0 C50 4.29 50 8.58 50 13 C38.45 13 26.9 13 15 13 C15 17.95 15 22.9 15 28 C26.22 28 37.44 28 49 28 C49 32.29 49 36.58 49 41 C37.78 41 26.56 41 15 41 C15 45.95 15 50.9 15 56 C26.55 56 38.1 56 50 56 C50 60.62 50 65.24 50 70 C33.5 70 17 70 0 70 C0 46.9 0 23.8 0 0 Z " fill="#FFFFFF" transform="translate(561,176)"/>
</svg>
